<svg xmlns="http://www.w3.org/2000/svg" viewBox="0 0 64 64" width="64" height="64">
  <defs>
    <radialGradient id="glow" cx="50%" cy="50%" r="50%">
      <stop offset="0%" style="stop-color:#ff8c00;stop-opacity:0.3"/>
      <stop offset="100%" style="stop-color:#1a1a2e;stop-opacity:0"/>
    </radialGradient>
    <linearGradient id="bg" x1="0%" y1="0%" x2="100%" y2="100%">
      <stop offset="0%" style="stop-color:#1a1a2e"/>
      <stop offset="100%" style="stop-color:#0d0d1a"/>
    </linearGradient>
  </defs>
  <rect width="64" height="64" rx="14" fill="url(#bg)"/>
  <rect width="64" height="64" rx="14" fill="url(#glow)"/>
  <line x1="32" y1="12" x2="32" y2="17" stroke="#ff6b00" stroke-width="2" stroke-linecap="round"/>
  <circle cx="32" cy="11" r="2.5" fill="#ff8c00"/>
  <rect x="19" y="17" width="26" height="16" rx="4" fill="#2d2d3f" stroke="#ff6b00" stroke-width="1"/>
  <rect x="23" y="21" width="7" height="5" rx="1.5" fill="#ff8c00"/>
  <rect x="34" y="21" width="7" height="5" rx="1.5" fill="#ff8c00"/>
  <rect x="27" y="29" width="10" height="1.5" rx="0.75" fill="#ff6b00" opacity="0.7"/>
  <rect x="15.5" y="21" width="3" height="8" rx="1.5" fill="#ff6b00" opacity="0.8"/>
  <rect x="45.5" y="21" width="3" height="8" rx="1.5" fill="#ff6b00" opacity="0.8"/>
  <rect x="22" y="36" width="20" height="15" rx="3" fill="#2d2d3f" stroke="#ff6b00" stroke-width="0.8"/>
  <circle cx="32" cy="43" r="3" fill="none" stroke="#ff6b00" stroke-width="0.6" opacity="0.8"/>
  <circle cx="32" cy="43" r="1.2" fill="#ff8c00" opacity="0.9"/>
  <rect x="17" y="38" width="4" height="10" rx="2" fill="#2d2d3f" stroke="#ff6b00" stroke-width="0.7"/>
  <rect x="43" y="38" width="4" height="10" rx="2" fill="#2d2d3f" stroke="#ff6b00" stroke-width="0.7"/>
</svg>
